<svg width="44" height="20" viewBox="0 0 44 20" fill="none" xmlns="http://www.w3.org/2000/svg">
<path d="M22.0802 19.7482C21.5348 19.7486 21.0069 19.6179 20.591 19.3795L1.2677 8.39195C1.01066 8.24528 0.804082 8.06248 0.66238 7.8563C0.520678 7.65012 0.447266 7.42553 0.447266 7.1982C0.447266 6.97088 0.520678 6.74629 0.66238 6.54011C0.804082 6.33393 1.01066 6.15113 1.2677 6.00446L9.46321 1.34195C9.88009 1.10483 10.4075 0.974806 10.9525 0.974806C11.4974 0.974806 12.0248 1.10483 12.4417 1.34195L22.0802 6.82008L31.7187 1.33883C32.1356 1.10171 32.663 0.97168 33.208 0.97168C33.7529 0.97168 34.2803 1.10171 34.6972 1.33883L42.8927 6.00133C43.1498 6.148 43.3563 6.33081 43.498 6.53699C43.6398 6.74317 43.7132 6.96775 43.7132 7.19508C43.7132 7.4224 43.6398 7.64699 43.498 7.85317C43.3563 8.05935 43.1498 8.24215 42.8927 8.38883L23.5695 19.3763C23.1552 19.6171 22.6266 19.7491 22.0802 19.7482ZM6.34596 7.1982L22.0802 16.1451L37.8145 7.1982L33.208 4.57633L23.5695 10.0576C23.1518 10.2935 22.6247 10.4228 22.0802 10.4228C21.5358 10.4228 21.0086 10.2935 20.591 10.0576L10.9525 4.57633L6.34596 7.1982Z" fill="#BB936D"/>
</svg>
